<?xml version="1.0" encoding="UTF-8" standalone="no"?>
<svg
   id="a"
   viewBox="0 0 900 237"
   version="1.1"
   sodipodi:docname="nanodash.svg"
   width="900"
   height="237"
   inkscape:version="1.2.2 (b0a8486541, 2022-12-01)"
   xmlns:inkscape="http://www.inkscape.org/namespaces/inkscape"
   xmlns:sodipodi="http://sodipodi.sourceforge.net/DTD/sodipodi-0.dtd"
   xmlns="http://www.w3.org/2000/svg"
   xmlns:svg="http://www.w3.org/2000/svg">
  <sodipodi:namedview
     id="namedview39"
     pagecolor="#ffffff"
     bordercolor="#666666"
     borderopacity="1.0"
     inkscape:showpageshadow="2"
     inkscape:pageopacity="0.0"
     inkscape:pagecheckerboard="0"
     inkscape:deskcolor="#d1d1d1"
     showgrid="false"
     inkscape:zoom="0.99578059"
     inkscape:cx="655.26483"
     inkscape:cy="118.5"
     inkscape:window-width="3770"
     inkscape:window-height="2328"
     inkscape:window-x="0"
     inkscape:window-y="0"
     inkscape:window-maximized="1"
     inkscape:current-layer="a" />
  <defs
     id="defs4">
    <style
       id="style2">.b{fill:#c7d1dc;}.c{fill:#0b73da;}</style>
  </defs>
  <g
     id="g26">
    <g
       id="g22">
      <path
         d="m 73.04,171.13 v -79.9 h 12.83 v 6.41 h 3.74 c 2.05,-2.67 4.72,-4.74 8.02,-6.21 3.29,-1.47 6.9,-2.2 10.82,-2.2 5.7,0 10.6,1.25 14.7,3.74 4.1,2.49 7.28,5.99 9.55,10.49 2.27,4.5 3.41,9.82 3.41,15.97 v 51.71 h -12.83 v -48.23 c 0,-6.95 -1.6,-12.25 -4.81,-15.9 -3.21,-3.65 -7.84,-5.48 -13.9,-5.48 -6.06,0 -10.69,1.83 -13.9,5.48 -3.21,3.65 -4.81,8.95 -4.81,15.9 v 48.23 H 73.03 Z"
         id="path6" />
      <path
         d="m 216.27,121.83 v 11.49 l -24.99,3.74 c -4.1,0.71 -7.17,2.16 -9.22,4.34 -2.05,2.18 -3.07,5.01 -3.07,8.48 0,3.47 1.22,6.12 3.67,8.22 2.45,2.09 5.72,3.14 9.82,3.14 4.1,0 7.84,-0.98 11.22,-2.94 3.38,-1.96 6.08,-4.59 8.08,-7.88 2,-3.29 3.01,-6.99 3.01,-11.09 v -20.58 c 0,-5.52 -1.63,-9.84 -4.88,-12.96 -3.25,-3.12 -7.77,-4.68 -13.56,-4.68 -4.1,0 -7.7,0.69 -10.82,2.07 -3.12,1.38 -5.68,3.36 -7.68,5.95 -2,2.59 -3.32,5.75 -3.94,9.49 h -12.29 c 0.44,-6.06 2.18,-11.29 5.21,-15.7 3.03,-4.41 7.08,-7.79 12.16,-10.15 5.08,-2.36 11,-3.54 17.77,-3.54 9.71,0 17.21,2.47 22.51,7.42 5.3,4.94 7.95,12 7.95,21.18 v 53.31 h -12.43 v -7.75 h -3.74 c -2.14,3.12 -5.01,5.52 -8.62,7.21 -3.61,1.69 -7.9,2.54 -12.89,2.54 -4.99,0 -9.15,-0.96 -12.76,-2.87 -3.61,-1.91 -6.39,-4.56 -8.35,-7.95 -1.96,-3.38 -2.94,-7.35 -2.94,-11.89 0,-6.59 2.07,-11.98 6.21,-16.17 4.14,-4.19 10.09,-6.9 17.84,-8.15 l 26.72,-4.28 z"
         id="path8" />
      <path
         d="m 260.09,171.13 v -79.9 h 12.83 v 6.41 h 3.74 c 2.05,-2.67 4.72,-4.74 8.02,-6.21 3.29,-1.47 6.9,-2.2 10.82,-2.2 5.7,0 10.6,1.25 14.7,3.74 4.1,2.49 7.28,5.99 9.55,10.49 2.27,4.5 3.41,9.82 3.41,15.97 v 51.71 h -12.83 v -48.23 c 0,-6.95 -1.6,-12.25 -4.81,-15.9 -3.21,-3.65 -7.84,-5.48 -13.9,-5.48 -6.06,0 -10.69,1.83 -13.9,5.48 -3.21,3.65 -4.81,8.95 -4.81,15.9 v 48.23 h -12.83 z"
         id="path10" />
      <path
         d="m 384.35,173.13 c -7.21,0 -13.49,-1.69 -18.84,-5.08 -5.34,-3.38 -9.47,-8.22 -12.36,-14.5 -2.9,-6.28 -4.34,-13.74 -4.34,-22.38 0,-8.64 1.45,-16.08 4.34,-22.31 2.89,-6.23 7.01,-11.07 12.36,-14.5 5.34,-3.43 11.62,-5.14 18.84,-5.14 7.22,0 13.61,1.72 18.91,5.14 5.3,3.43 9.4,8.26 12.29,14.5 2.89,6.24 4.34,13.67 4.34,22.31 0,8.64 -1.45,16.1 -4.34,22.38 -2.89,6.28 -6.99,11.11 -12.29,14.5 -5.3,3.38 -11.6,5.08 -18.91,5.08 z m 0,-12.02 c 7.21,0 12.8,-2.63 16.77,-7.88 3.96,-5.25 5.95,-12.6 5.95,-22.05 0,-9.45 -1.98,-16.79 -5.95,-22.05 -3.96,-5.25 -9.55,-7.88 -16.77,-7.88 -7.22,0 -12.69,2.63 -16.7,7.88 -4.01,5.26 -6.01,12.61 -6.01,22.05 0,9.44 2,16.79 6.01,22.05 4.01,5.26 9.57,7.88 16.7,7.88 z"
         id="path12" />
      <path
         d="m 472.66,173.13 c -6.59,0 -12.31,-1.69 -17.17,-5.08 -4.86,-3.38 -8.62,-8.22 -11.29,-14.5 -2.67,-6.28 -4.01,-13.74 -4.01,-22.38 0,-8.64 1.34,-16.08 4.01,-22.31 2.67,-6.23 6.43,-11.07 11.29,-14.5 4.85,-3.43 10.58,-5.14 17.17,-5.14 4.54,0 8.64,0.89 12.29,2.67 3.65,1.78 6.41,4.28 8.28,7.48 h 3.74 V 57.82 h 12.83 v 113.3 h -12.83 v -8.02 h -3.74 c -1.87,3.12 -4.63,5.57 -8.28,7.35 -3.65,1.78 -7.75,2.67 -12.29,2.67 z m 2.54,-12.02 c 7.04,0 12.51,-2.63 16.43,-7.88 3.92,-5.25 5.88,-12.6 5.88,-22.05 0,-9.45 -1.96,-16.79 -5.88,-22.05 -3.92,-5.25 -9.4,-7.88 -16.43,-7.88 -7.03,0 -12.49,2.63 -16.37,7.88 -3.87,5.26 -5.81,12.61 -5.81,22.05 0,9.44 1.94,16.79 5.81,22.05 3.87,5.26 9.33,7.88 16.37,7.88 z"
         id="path14" />
      <path
         d="m 590.37,121.83 v 11.49 l -24.98,3.74 c -4.1,0.71 -7.17,2.16 -9.22,4.34 -2.05,2.18 -3.07,5.01 -3.07,8.48 0,3.47 1.22,6.12 3.67,8.22 2.45,2.09 5.72,3.14 9.82,3.14 4.1,0 7.84,-0.98 11.22,-2.94 3.38,-1.96 6.08,-4.59 8.08,-7.88 2,-3.29 3.01,-6.99 3.01,-11.09 v -20.58 c 0,-5.52 -1.63,-9.84 -4.88,-12.96 -3.25,-3.12 -7.77,-4.68 -13.56,-4.68 -4.1,0 -7.71,0.69 -10.82,2.07 -3.12,1.38 -5.68,3.36 -7.68,5.95 -2,2.59 -3.32,5.75 -3.94,9.49 h -12.29 c 0.44,-6.06 2.18,-11.29 5.21,-15.7 3.03,-4.41 7.08,-7.79 12.16,-10.15 5.08,-2.36 11,-3.54 17.77,-3.54 9.71,0 17.21,2.47 22.51,7.42 5.3,4.94 7.95,12 7.95,21.18 v 53.31 H 588.9 v -7.75 h -3.74 c -2.14,3.12 -5.01,5.52 -8.62,7.21 -3.61,1.69 -7.91,2.54 -12.89,2.54 -4.98,0 -9.15,-0.96 -12.76,-2.87 -3.61,-1.91 -6.39,-4.56 -8.35,-7.95 -1.96,-3.38 -2.94,-7.35 -2.94,-11.89 0,-6.59 2.07,-11.98 6.21,-16.17 4.14,-4.19 10.09,-6.9 17.84,-8.15 z"
         id="path16" />
      <path
         d="m 645.42,146.81 c 1.16,4.63 3.45,8.17 6.88,10.62 3.43,2.45 7.9,3.67 13.43,3.67 5.53,0 10.06,-1.07 13.09,-3.21 3.03,-2.14 4.54,-5.17 4.54,-9.09 0,-2.76 -1.2,-5.03 -3.61,-6.81 -2.41,-1.78 -6.01,-3.03 -10.82,-3.74 l -10.02,-1.47 c -8.55,-1.25 -14.83,-3.74 -18.84,-7.48 -4.01,-3.74 -6.01,-8.91 -6.01,-15.5 0,-7.66 2.78,-13.67 8.35,-18.04 5.57,-4.36 13.25,-6.55 23.05,-6.55 9.8,0 17.84,2.47 23.58,7.42 5.75,4.94 8.84,11.87 9.29,20.78 h -11.76 c -1.16,-5.25 -3.52,-9.26 -7.08,-12.03 -3.56,-2.76 -8.28,-4.14 -14.16,-4.14 -5.88,0 -10.56,1.09 -13.76,3.27 -3.21,2.18 -4.81,5.23 -4.81,9.15 0,2.76 1.2,5.01 3.61,6.75 2.4,1.74 6.06,2.96 10.96,3.67 l 10.02,1.47 c 8.55,1.34 14.81,3.87 18.77,7.62 3.96,3.74 5.95,8.91 5.95,15.5 0,5.08 -1.23,9.44 -3.67,13.09 -2.45,3.65 -5.95,6.46 -10.49,8.42 -4.54,1.96 -9.98,2.94 -16.3,2.94 -9.71,0 -17.35,-2.29 -22.91,-6.88 -5.57,-4.59 -8.62,-11.07 -9.15,-19.44 h 11.89 z"
         id="path18" />
      <path
         d="M 727.72,171.13 V 57.83 h 12.83 v 39.82 h 3.74 c 2.05,-2.67 4.72,-4.74 8.02,-6.21 3.29,-1.47 6.9,-2.2 10.82,-2.2 5.7,0 10.6,1.25 14.7,3.74 4.1,2.49 7.28,5.99 9.55,10.49 2.27,4.5 3.41,9.82 3.41,15.97 v 51.71 h -12.83 v -48.23 c 0,-6.95 -1.6,-12.25 -4.81,-15.9 -3.21,-3.65 -7.84,-5.48 -13.9,-5.48 -6.06,0 -10.69,1.83 -13.9,5.48 -3.21,3.65 -4.81,8.95 -4.81,15.9 v 48.23 h -12.83 z"
         id="path20" />
    </g>
    <rect
       class="c"
       x="817.78998"
       y="142.28"
       width="33.310001"
       height="33.310001"
       transform="rotate(14.25,834.69686,159.0356)"
       id="rect24" />
  </g>
</svg>
