<?xml version="1.0" encoding="utf-8"?>
<!-- Generator: Adobe Illustrator 27.2.0, SVG Export Plug-In . SVG Version: 6.00 Build 0)  -->
<svg version="1.1" id="a" xmlns="http://www.w3.org/2000/svg" xmlns:xlink="http://www.w3.org/1999/xlink" x="0px" y="0px"
	 viewBox="0 0 800 300" style="enable-background:new 0 0 800 300;" xml:space="preserve">
<style type="text/css">
	.st0{fill:#DB0B5B;}
</style>
<path d="M0,113.3V0h12.8v113.3H0z M44.8,113.3l-35.9-39L46,33.4h16.3L25.4,73.9l36.5,39.4H44.8z"/>
<path d="M86.7,113.3V33.4h12.8v6.4h3.7c2.1-2.7,4.7-4.7,8-6.2s6.9-2.2,10.8-2.2c5.7,0,10.6,1.2,14.7,3.7c4.1,2.5,7.3,6,9.6,10.5
	s3.4,9.8,3.4,16v51.7h-12.8V65.1c0-6.9-1.6-12.2-4.8-15.9c-3.2-3.6-7.8-5.5-13.9-5.5s-10.7,1.8-13.9,5.5c-3.2,3.6-4.8,8.9-4.8,15.9
	v48.2L86.7,113.3L86.7,113.3z"/>
<path d="M211,115.3c-7.2,0-13.5-1.7-18.8-5.1c-5.3-3.4-9.5-8.2-12.4-14.5s-4.3-13.7-4.3-22.4s1.5-16.1,4.3-22.3
	c2.9-6.2,7-11.1,12.4-14.5c5.3-3.4,11.6-5.1,18.8-5.1s13.6,1.7,18.9,5.1c5.3,3.4,9.4,8.3,12.3,14.5s4.3,13.7,4.3,22.3
	s-1.5,16.1-4.3,22.4s-7,11.1-12.3,14.5C224.6,113.6,218.3,115.3,211,115.3z M211,103.3c7.2,0,12.8-2.6,16.8-7.9c4-5.2,6-12.6,6-22.1
	s-2-16.8-6-22c-4-5.2-9.5-7.9-16.8-7.9s-12.7,2.6-16.7,7.9c-4,5.3-6,12.6-6,22s2,16.8,6,22.1S203.8,103.3,211,103.3z"/>
<path d="M277.2,113.3l-14.8-79.9h12.7l8.3,47.6l2.7,23.1h1.2l8.7-70.7h18l9,70.7h1.2l2.4-23.1l8.5-47.6h11.5l-15,79.9h-17.5l-9-70.9
	h-1.3l-8.5,70.9L277.2,113.3L277.2,113.3z"/>
<path d="M369.4,0h37.1v101.3h24.3v12h-61.5v-12h24.3V12h-24.3V0L369.4,0z"/>
<path d="M460.4,66.1h49.4l-4.4,5.6c0-9.4-1.7-16.5-5.1-21.4c-3.4-4.9-8.3-7.4-14.8-7.4c-7,0-12.5,2.6-16.4,7.8s-5.8,12.5-5.8,21.8
	c0,10.1,2,17.8,5.9,23.1s9.5,7.9,16.8,7.9c4.9,0,9.1-1.3,12.7-3.8s6.5-6.3,8.7-11.2h12c-1.3,5.5-3.6,10.3-6.7,14.3
	c-3.1,4-6.9,7.1-11.4,9.1s-9.6,3.1-15.3,3.1c-7.4,0-13.7-1.7-19-5c-5.3-3.3-9.3-8.2-12.1-14.6c-2.8-6.4-4.2-14.1-4.2-23.1
	s1.4-15.9,4.3-22c2.8-6.1,6.9-10.9,12.1-14.2s11.3-5,18.4-5s12.5,1.6,17.2,4.7c4.7,3.1,8.3,7.7,10.8,13.7s3.7,13.3,3.7,21.8
	c0,1,0,2-0.1,3s-0.1,2-0.2,2.9h-56.7L460.4,66.1L460.4,66.1z"/>
<path d="M572.3,115.3c-6.6,0-12.3-1.7-17.2-5.1c-4.9-3.4-8.6-8.2-11.3-14.5s-4-13.7-4-22.4s1.3-16.1,4-22.3s6.4-11.1,11.3-14.5
	c4.8-3.4,10.6-5.1,17.2-5.1c4.5,0,8.6,0.9,12.3,2.7c3.7,1.8,6.4,4.3,8.3,7.5h3.7V0h12.8v113.3h-12.8v-8h-3.7
	c-1.9,3.1-4.6,5.6-8.3,7.4S576.9,115.3,572.3,115.3L572.3,115.3z M574.9,103.3c7,0,12.5-2.6,16.4-7.9s5.9-12.6,5.9-22.1
	s-2-16.8-5.9-22s-9.4-7.9-16.4-7.9s-12.5,2.6-16.4,7.9c-3.9,5.3-5.8,12.6-5.8,22s1.9,16.8,5.8,22.1
	C562.4,100.7,567.8,103.3,574.9,103.3z"/>
<path d="M703.3,111c0,6.4-1.4,11.9-4.1,16.6c-2.7,4.6-6.6,8.2-11.7,10.7c-5.1,2.5-11.2,3.7-18.4,3.7c-6.5,0-12.2-1-17.2-3
	c-5-2-8.9-4.9-11.8-8.7c-2.8-3.8-4.5-8.3-4.8-13.4h12.3c1.2,4.3,3.8,7.6,7.5,9.9s8.4,3.5,14,3.5c6.8,0,12-1.8,15.8-5.3
	s5.6-8.4,5.6-14.8v-9.8h-3.7c-1.8,2.8-4.5,4.9-8,6.6c-3.6,1.6-7.4,2.4-11.5,2.4c-6.5,0-12.1-1.6-16.9-4.7c-4.8-3.2-8.4-7.7-11-13.5
	c-2.6-5.8-3.9-12.7-3.9-20.6s1.3-15.1,3.9-20.9c2.6-5.8,6.3-10.4,11-13.6c4.8-3.2,10.4-4.8,16.9-4.8c4.2,0,8,0.9,11.6,2.5
	c3.5,1.7,6.2,4,8,6.8h3.7v-7.4h12.8L703.3,111L703.3,111z M648.2,70.7c0,8.6,1.9,15.4,5.7,20.1c3.8,4.8,9.1,7.1,15.8,7.1
	s12-2.4,15.8-7.1c3.8-4.8,5.7-11.5,5.7-20.1s-1.9-15.3-5.7-20.1c-3.8-4.8-9.1-7.1-15.8-7.1s-12,2.4-15.8,7.1
	C650.1,55.4,648.2,62.1,648.2,70.7z"/>
<path d="M741,66.1h49.4l-4.4,5.6c0-9.4-1.7-16.5-5.1-21.4c-3.4-4.9-8.3-7.4-14.8-7.4c-7,0-12.5,2.6-16.4,7.8s-5.8,12.5-5.8,21.8
	c0,10.1,2,17.8,5.9,23.1s9.5,7.9,16.8,7.9c4.9,0,9.1-1.3,12.7-3.8s6.5-6.3,8.7-11.2h12c-1.3,5.5-3.6,10.3-6.7,14.3
	c-3.1,4-6.9,7.1-11.4,9.1s-9.6,3.1-15.3,3.1c-7.4,0-13.7-1.7-19-5c-5.3-3.3-9.3-8.2-12.1-14.6c-2.8-6.4-4.2-14.1-4.2-23.1
	s1.4-15.9,4.3-22c2.8-6.1,6.9-10.9,12.1-14.2s11.3-5,18.4-5s12.5,1.6,17.2,4.7c4.7,3.1,8.3,7.7,10.8,13.7s3.7,13.3,3.7,21.8
	c0,1,0,2-0.1,3s-0.1,2-0.2,2.9h-56.7L741,66.1L741,66.1z"/>
<path d="M0,300V193.4h12.8v8.1h3.7c1.9-3.2,4.6-5.7,8.4-7.5c3.7-1.8,7.8-2.7,12.2-2.7c6.6,0,12.3,1.7,17.2,5.1
	c4.9,3.4,8.7,8.3,11.3,14.5c2.6,6.2,3.9,13.7,3.9,22.3s-1.3,16.1-3.9,22.4s-6.4,11.1-11.3,14.5c-4.9,3.4-10.6,5.1-17.2,5.1
	c-4.5,0-8.5-0.9-12.2-2.7s-6.5-4.2-8.4-7.4h-3.7V300L0,300L0,300z M34.6,263.3c7,0,12.5-2.6,16.4-7.9c3.9-5.2,5.8-12.6,5.8-22
	s-1.9-16.8-5.8-22c-3.9-5.2-9.3-7.9-16.4-7.9s-12.5,2.6-16.4,7.9c-3.9,5.3-5.9,12.6-5.9,22s2,16.8,5.9,22
	C22.1,260.7,27.6,263.3,34.6,263.3z"/>
<path d="M98.9,193.4H136v67.9h24.3v12H98.9v-12h24.3v-55.9H98.9V193.4L98.9,193.4z"/>
<path d="M184.2,273.3l23.9-38.2l-25.4-41.7h15l19.6,31.9l0.9,3.5h1.3l0.9-3.5l20.6-31.9h14L229.3,234l24.5,39.3h-15.2L220.2,244
	l-1.1-3.3h-1.2L217,244l-18.4,29.3L184.2,273.3L184.2,273.3z"/>
<path d="M288.9,226.1h49.4l-4.4,5.6c0-9.4-1.7-16.5-5.1-21.4c-3.4-4.9-8.3-7.4-14.8-7.4c-7,0-12.5,2.6-16.4,7.8
	c-3.9,5.2-5.8,12.5-5.8,21.9c0,10.1,2,17.8,5.9,23s9.5,8,16.8,8c4.9,0,9.1-1.3,12.7-3.8s6.5-6.3,8.7-11.1h12
	c-1.3,5.5-3.6,10.3-6.7,14.3c-3.1,4-6.9,7.1-11.4,9.1s-9.6,3.1-15.3,3.1c-7.4,0-13.7-1.7-19-5c-5.3-3.3-9.3-8.2-12.1-14.6
	c-2.8-6.4-4.2-14-4.2-23s1.4-15.9,4.3-22c2.9-6.1,6.9-10.9,12.1-14.2s11.3-5,18.4-5s12.5,1.6,17.2,4.7c4.7,3.1,8.3,7.7,10.8,13.7
	c2.5,6,3.7,13.3,3.7,21.8c0,1,0,2-0.1,3c0,1-0.1,2-0.2,2.9h-56.6L288.9,226.1L288.9,226.1z"/>
<path d="M369.4,160h37.1v101.3h24.3v12h-61.5v-12h24.3V172h-24.3V160L369.4,160z"/>
<path d="M464.6,249c1.2,4.6,3.5,8.2,6.9,10.6c3.4,2.5,7.9,3.7,13.4,3.7s10.1-1.1,13.1-3.2s4.5-5.2,4.5-9.1c0-2.8-1.2-5-3.6-6.8
	c-2.4-1.8-6-3-10.8-3.7l-10-1.5c-8.5-1.2-14.8-3.7-18.8-7.5c-4-3.7-6-8.9-6-15.5c0-7.7,2.8-13.7,8.3-18s13.2-6.5,23-6.5
	s17.8,2.5,23.6,7.4s8.8,11.9,9.3,20.8h-11.8c-1.2-5.2-3.5-9.3-7.1-12c-3.6-2.8-8.3-4.1-14.2-4.1s-10.5,1.1-13.8,3.3
	s-4.8,5.2-4.8,9.1c0,2.8,1.2,5,3.6,6.8c2.4,1.7,6,3,11,3.7l10,1.5c8.5,1.3,14.8,3.9,18.8,7.6s6,8.9,6,15.5c0,5.1-1.2,9.4-3.7,13.1
	s-6,6.5-10.5,8.4c-4.5,2-10,2.9-16.3,2.9c-9.7,0-17.3-2.3-22.9-6.9c-5.6-4.6-8.6-11.1-9.2-19.4L464.6,249L464.6,249z"/>
<rect x="118.8" y="160.4" transform="matrix(0.2462 -0.9692 0.9692 0.2462 -68.1721 254.1622)" class="st0" width="21.1" height="21.1"/>
</svg>
